<?xml version="1.0" standalone="no"?>
<!DOCTYPE svg PUBLIC "-//W3C//DTD SVG 20010904//EN"
 "http://www.w3.org/TR/2001/REC-SVG-20010904/DTD/svg10.dtd">
<svg version="1.0" xmlns="http://www.w3.org/2000/svg"
 width="25.000000pt" height="25.000000pt" viewBox="0 0 25.000000 25.000000"
 preserveAspectRatio="xMidYMid meet">
<metadata>
Created by potrace 1.16, written by Peter Selinger 2001-2019
</metadata>
<g transform="translate(0.000000,25.000000) scale(0.100000,-0.100000)"
fill="#000000" stroke="none">
<path d="M190 224 c0 -8 -5 -12 -11 -9 -5 4 -23 2 -39 -5 -23 -10 -33 -9 -54
6 -15 9 -30 13 -34 9 -4 -4 3 -14 16 -22 12 -9 22 -25 22 -38 0 -12 9 -30 20
-40 15 -14 17 -21 9 -32 -10 -11 -19 -9 -57 12 -25 14 -48 23 -51 19 -8 -8 19
-27 107 -75 73 -40 111 -46 120 -20 3 9 -1 11 -16 7 -12 -4 -34 0 -52 9 l-31
16 23 29 c13 16 31 29 41 29 21 1 22 14 2 31 -23 19 -19 47 8 46 16 -1 23 5
25 22 3 18 -1 22 -22 22 -17 0 -26 -6 -26 -16z"/>
</g>
</svg>
